<svg class="icon" viewBox="0 0 1024 1024" version="1.1" xmlns="http://www.w3.org/2000/svg"  width="128" height="128">
    <path d="M214.528 347.648c0-15.36 6.144-30.72 16.896-41.472 10.752-10.752 26.112-16.896 41.472-16.896s30.72 6.144 41.472 16.896c10.752 10.752 16.896 26.112 16.896 41.472s-6.144 30.72-16.896 41.472c-10.752 10.752-26.112 16.896-41.472 16.896s-30.72-6.144-41.472-16.896c-10.752-11.264-16.896-26.112-16.896-41.472zM185.344 699.392c-3.072 0-5.632-0.512-8.704-1.536-15.36-4.608-24.064-20.992-19.456-36.352 2.048-7.168 54.784-170.496 167.424-167.936 31.744 1.024 58.88 8.704 84.48 16.896 33.28 10.24 61.952 18.432 100.352 12.288 18.432-3.072 26.624-22.016 39.424-64 17.408-55.808 43.52-139.264 159.744-139.264 16.384 0 29.184 13.312 29.184 29.184 0 16.384-13.312 29.184-29.184 29.184-69.632 0-84.48 37.376-103.936 98.304-13.312 42.496-29.696 95.232-86.016 103.936-51.2 8.192-91.136-3.584-126.464-14.336-23.04-7.168-45.056-13.824-69.12-14.336h-1.536c-56.832 0-97.792 91.136-108.544 126.464-3.584 13.312-15.36 21.504-27.648 21.504zM795.648 531.456c-112.64 0-204.288 91.648-204.288 204.288s91.648 204.288 204.288 204.288 204.288-91.648 204.288-204.288-91.648-204.288-204.288-204.288z m0 349.696c-79.872 0-144.896-65.024-144.896-144.896 0-79.872 65.024-144.896 144.896-144.896 79.872 0 144.896 65.024 144.896 144.896 0 79.872-65.024 144.896-144.896 144.896z" fill="#8a8a8a" />
    <path d="M602.624 747.008v-6.144H143.872c-26.112 0-47.104-20.992-47.104-47.104V228.864c0-26.112 20.992-47.104 47.104-47.104H757.76c26.112 0 47.104 20.992 47.104 47.104V542.72h1.536c20.992 0 41.472 3.072 60.928 9.216V228.864c0-60.416-49.152-109.568-109.568-109.568H143.872c-60.416 0-109.568 49.152-109.568 109.568v464.896c0 60.416 49.152 109.568 109.568 109.568h466.432c-5.12-17.92-7.68-36.864-7.68-56.32zM875.52 724.48l-130.048 74.752c-12.8 7.68-29.696 3.072-37.376-9.728l-2.56-4.608c-7.68-12.8-3.072-29.696 9.728-37.376l130.048-74.752c12.8-7.68 29.696-3.072 37.376 9.728l2.56 4.608c7.68 13.312 3.072 29.696-9.728 37.376z" fill="#8a8a8a" />
</svg>